<svg width="33" height="32" viewBox="0 0 33 32" fill="none" xmlns="http://www.w3.org/2000/svg">
<path fill-rule="evenodd" clip-rule="evenodd" d="M16.8473 0C8.06735 0 0.949829 7.11752 0.949829 15.8974C0.949829 24.6773 8.06735 31.7949 16.8473 31.7949C25.6272 31.7949 32.7447 24.6773 32.7447 15.8974C32.7447 7.11752 25.6272 0 16.8473 0ZM13.352 7.47015C14.2564 7.429 14.5454 7.41893 16.8481 7.41893H16.8454C19.1488 7.41893 19.4368 7.429 20.3412 7.47015C21.2438 7.51149 21.8603 7.65439 22.4008 7.86406C22.959 8.08044 23.4306 8.37013 23.9022 8.84176C24.3738 9.31304 24.6635 9.78608 24.8808 10.3437C25.0892 10.8828 25.2323 11.499 25.2747 12.4016C25.3153 13.306 25.3259 13.595 25.3259 15.8976C25.3259 18.2003 25.3153 18.4886 25.2747 19.393C25.2323 20.2953 25.0892 20.9116 24.8808 21.4509C24.6635 22.0083 24.3738 22.4814 23.9022 22.9526C23.4311 23.4243 22.9588 23.7147 22.4013 23.9312C21.8618 24.1409 21.245 24.2838 20.3424 24.3251C19.438 24.3663 19.1499 24.3764 16.847 24.3764C14.5445 24.3764 14.2557 24.3663 13.3513 24.3251C12.4489 24.2838 11.8326 24.1409 11.2931 23.9312C10.7358 23.7147 10.2628 23.4243 9.79168 22.9526C9.32023 22.4814 9.03054 22.0083 8.8138 21.4507C8.60431 20.9116 8.46141 20.2955 8.4199 19.3928C8.37892 18.4884 8.36867 18.2003 8.36867 15.8976C8.36867 13.595 8.37927 13.3058 8.41972 12.4014C8.46035 11.4991 8.60343 10.8828 8.81363 10.3436C9.03089 9.78608 9.32058 9.31304 9.79221 8.84176C10.2635 8.37031 10.7365 8.08062 11.2942 7.86406C11.8333 7.65439 12.4494 7.51149 13.352 7.47015Z" fill="white"/>
<path fill-rule="evenodd" clip-rule="evenodd" d="M16.0875 8.94676C16.2352 8.94653 16.3941 8.9466 16.5655 8.94668L16.8481 8.94676C19.1119 8.94676 19.3803 8.95489 20.2742 8.99551C21.1009 9.03331 21.5496 9.17145 21.8485 9.2875C22.2441 9.44118 22.5262 9.62488 22.8228 9.92164C23.1196 10.2184 23.3033 10.501 23.4573 10.8967C23.5733 11.1952 23.7116 11.6439 23.7493 12.4706C23.7899 13.3644 23.7987 13.6328 23.7987 15.8956C23.7987 18.1584 23.7899 18.4269 23.7493 19.3207C23.7115 20.1473 23.5733 20.596 23.4573 20.8945C23.3036 21.2902 23.1196 21.5719 22.8228 21.8685C22.526 22.1653 22.2443 22.349 21.8485 22.5026C21.5499 22.6192 21.1009 22.757 20.2742 22.7948C19.3804 22.8354 19.1119 22.8443 16.8481 22.8443C14.5841 22.8443 14.3158 22.8354 13.422 22.7948C12.5953 22.7567 12.1467 22.6185 11.8476 22.5025C11.4519 22.3488 11.1693 22.1651 10.8726 21.8683C10.5758 21.5716 10.3921 21.2897 10.2381 20.8938C10.122 20.5953 9.98372 20.1466 9.94609 19.3199C9.90546 18.4261 9.89734 18.1577 9.89734 15.8935C9.89734 13.6293 9.90546 13.3622 9.94609 12.4684C9.98389 11.6418 10.122 11.1931 10.2381 10.8942C10.3918 10.4985 10.5758 10.2159 10.8726 9.91916C11.1693 9.62241 11.4519 9.4387 11.8476 9.28467C12.1465 9.16809 12.5953 9.03031 13.422 8.99233C14.2042 8.95701 14.5073 8.94641 16.0875 8.94464V8.94676ZM21.374 10.3547C20.8123 10.3547 20.3565 10.8099 20.3565 11.3718C20.3565 11.9335 20.8123 12.3892 21.374 12.3892C21.9357 12.3892 22.3914 11.9335 22.3914 11.3718C22.3914 10.8101 21.9357 10.3543 21.374 10.3543V10.3547ZM12.494 15.8975C12.494 13.493 14.4435 11.5434 16.848 11.5434C19.2526 11.5434 21.2016 13.4929 21.2016 15.8975C21.2016 18.3021 19.2527 20.2508 16.8481 20.2508C14.4435 20.2508 12.494 18.3021 12.494 15.8975Z" fill="white"/>
<path d="M16.8481 13.0714C18.4089 13.0714 19.6743 14.3366 19.6743 15.8976C19.6743 17.4584 18.4089 18.7238 16.8481 18.7238C15.2871 18.7238 14.0219 17.4584 14.0219 15.8976C14.0219 14.3366 15.2871 13.0714 16.8481 13.0714Z" fill="white"/>
</svg>
