<svg width="64" height="21" viewBox="0 0 64 21" fill="none" xmlns="http://www.w3.org/2000/svg">
<path d="M0.794872 0.794872H18.4051V15.1166L9.6 20.0872L0.794872 15.1166V0.794872Z" stroke="#5C6AC4" stroke-width="1.58974"/>
<path d="M11.12 11.2023H8.0391L7.49473 12.6154H4.71495L8.25917 4.50766H10.9463L14.4905 12.6154H11.6644L11.12 11.2023ZM10.3672 9.23329L9.57956 7.19478L8.79196 9.23329H10.3672Z" fill="#182E4B"/>
<path d="M32.6439 11.2023H29.563L29.0186 12.6154H26.2388L29.7831 4.50766H32.4702L36.0144 12.6154H33.1883L32.6439 11.2023ZM31.8911 9.23329L31.1034 7.19478L30.3158 9.23329H31.8911ZM40.5304 12.8007C39.6733 12.8007 38.9011 12.6231 38.2139 12.2679C37.5267 11.905 36.9861 11.4031 36.5923 10.7622C36.2063 10.1136 36.0132 9.38 36.0132 8.56151C36.0132 7.74302 36.2063 7.01333 36.5923 6.37243C36.9861 5.72382 37.5267 5.22191 38.2139 4.86672C38.9011 4.5038 39.6733 4.32235 40.5304 4.32235C41.318 4.32235 42.0206 4.46133 42.6384 4.73931C43.2561 5.01729 43.7657 5.41881 44.1672 5.94388L42.4415 7.48435C41.9396 6.85117 41.3489 6.53459 40.6693 6.53459C40.0979 6.53459 39.6385 6.71991 39.291 7.09054C38.9436 7.45346 38.7698 7.94378 38.7698 8.56151C38.7698 9.17924 38.9436 9.67342 39.291 10.0441C39.6385 10.407 40.0979 10.5884 40.6693 10.5884C41.3489 10.5884 41.9396 10.2718 42.4415 9.63868L44.1672 11.1791C43.7657 11.7042 43.2561 12.1057 42.6384 12.3837C42.0206 12.6617 41.318 12.8007 40.5304 12.8007ZM52.1955 12.6154L52.1723 8.92057L50.4118 11.8857H49.2072L47.4467 9.04797V12.6154H44.9565V4.50766H47.2035L49.8443 8.82791L52.4155 4.50766H54.6625L54.6857 12.6154H52.1955ZM62.7482 10.5537V12.6154H56.0073V4.50766H62.5977V6.56933H58.6944V7.51909H62.1228V9.4881H58.6944V10.5537H62.7482Z" fill="#182E4B"/>
</svg>
