<svg width="34" height="32" viewBox="0 0 34 32" fill="none" xmlns="http://www.w3.org/2000/svg">
<path fill-rule="evenodd" clip-rule="evenodd" d="M16.9755 31.7949C7.7566 31.7949 0.283203 24.6773 0.283203 15.8974C0.283203 7.11752 7.7566 0 16.9755 0C26.1944 0 33.6678 7.11752 33.6678 15.8974C33.6678 24.6773 26.1944 31.7949 16.9755 31.7949ZM17.208 15.0052C18.5748 15.0052 25.2203 11.4461 25.2203 11.4461L25.231 10.8102C25.231 10.1082 24.6328 9.53846 23.8936 9.53846H10.5224C9.78395 9.53846 9.18569 10.1082 9.18569 10.8102V11.3768C9.18569 11.3768 15.904 15.0052 17.208 15.0052ZM9.19638 13.3539C9.19571 13.3539 15.904 16.754 17.208 16.754C18.6375 16.754 25.2203 13.3539 25.2203 13.3539L25.231 20.9846C25.231 21.6867 24.6328 22.2564 23.8936 22.2564H10.5224C9.78461 22.2564 9.18569 21.6867 9.18569 20.9846L9.19638 13.3539Z" fill="white"/>
</svg>
