<svg width="163" height="23" viewBox="0 0 163 23" fill="none" xmlns="http://www.w3.org/2000/svg">
<path d="M17.9297 5.07715C17.9297 5.49186 17.862 5.96582 17.7266 6.49902C17.5996 7.02376 17.4303 7.59082 17.2188 8.2002C17.0156 8.80111 16.7786 9.43587 16.5078 10.1045C16.237 10.7646 15.9577 11.4417 15.6699 12.1357C15.3906 12.8213 15.1156 13.5111 14.8447 14.2051C14.5739 14.8906 14.3327 15.5677 14.1211 16.2363C13.918 16.8965 13.7487 17.5355 13.6133 18.1533C13.4863 18.7712 13.4229 19.3467 13.4229 19.8799C13.4229 20.4808 13.5752 20.9632 13.8799 21.3271C14.1846 21.6911 14.6755 21.873 15.3525 21.873C15.9111 21.873 16.4486 21.7419 16.9648 21.4795C17.4811 21.2171 17.9932 20.8278 18.501 20.3115C19.0173 19.7868 19.5378 19.1351 20.0625 18.3564C20.5957 17.5778 21.1543 16.6722 21.7383 15.6396L22.3984 14.4717L22.7412 14.7129L22.0811 15.8809C21.4463 17.0065 20.8454 17.984 20.2783 18.8135C19.7113 19.6429 19.1484 20.3327 18.5898 20.8828C18.0397 21.4245 17.4727 21.8265 16.8887 22.0889C16.3132 22.3597 15.6953 22.4951 15.0352 22.4951C14.4004 22.4951 13.863 22.4232 13.4229 22.2793C12.9827 22.1354 12.623 21.9323 12.3438 21.6699C12.0645 21.3991 11.8613 21.0775 11.7344 20.7051C11.6159 20.3242 11.5566 19.901 11.5566 19.4355C11.5566 19.0293 11.6201 18.5426 11.7471 17.9756C11.8825 17.4085 12.0602 16.7949 12.2803 16.1348C12.5003 15.4661 12.7458 14.7637 13.0166 14.0273C13.2959 13.291 13.5794 12.5505 13.8672 11.8057C14.1634 11.0524 14.4469 10.3118 14.7178 9.58398C14.9971 8.84766 15.2467 8.15365 15.4668 7.50195C15.6868 6.85026 15.8604 6.25358 15.9873 5.71191C16.1227 5.17025 16.1904 4.70898 16.1904 4.32812C16.1904 3.60872 16.0042 3.05013 15.6318 2.65234C15.2679 2.25456 14.7939 2.05566 14.21 2.05566C13.7021 2.05566 13.1901 2.19954 12.6738 2.4873C12.166 2.77507 11.6497 3.19401 11.125 3.74414C10.6087 4.28581 10.0798 4.95443 9.53809 5.75C9.00488 6.53711 8.45475 7.43001 7.8877 8.42871L7.25293 9.5459L2.7207 22.0127H0.841797L5.84375 8.22559C5.91992 8.03939 6.00879 7.77702 6.11035 7.43848C6.22038 7.09993 6.32194 6.73177 6.41504 6.33398C6.5166 5.92773 6.60124 5.50879 6.66895 5.07715C6.74512 4.63704 6.7832 4.22656 6.7832 3.8457C6.7832 3.5918 6.76204 3.35482 6.71973 3.13477C6.68587 2.91471 6.6224 2.72852 6.5293 2.57617C6.4362 2.41536 6.31348 2.28841 6.16113 2.19531C6.01725 2.10221 5.83529 2.05566 5.61523 2.05566C5.24284 2.05566 4.84928 2.17839 4.43457 2.42383C4.02832 2.66081 3.60938 3.02897 3.17773 3.52832C2.74609 4.02767 2.30599 4.66243 1.85742 5.43262C1.41732 6.19434 0.981445 7.0957 0.549805 8.13672L0.207031 7.9082C0.672526 6.75716 1.14225 5.77962 1.61621 4.97559C2.09863 4.17155 2.58105 3.51986 3.06348 3.02051C3.55436 2.5127 4.04102 2.14453 4.52344 1.91602C5.01432 1.6875 5.50098 1.57324 5.9834 1.57324C6.44889 1.57324 6.83398 1.66211 7.13867 1.83984C7.45182 2.01758 7.69727 2.26302 7.875 2.57617C8.05273 2.88086 8.17546 3.24056 8.24316 3.65527C8.31934 4.06152 8.35742 4.4974 8.35742 4.96289C8.35742 5.28451 8.3278 5.6569 8.26855 6.08008C8.20931 6.50326 8.11621 6.94759 7.98926 7.41309C8.54785 6.46517 9.08952 5.62728 9.61426 4.89941C10.139 4.17155 10.6637 3.56217 11.1885 3.07129C11.7132 2.57194 12.2464 2.19954 12.7881 1.9541C13.3298 1.7002 13.8968 1.57324 14.4893 1.57324C14.9548 1.57324 15.3949 1.64941 15.8096 1.80176C16.2327 1.9541 16.6009 2.17839 16.9141 2.47461C17.2272 2.76237 17.4727 3.1263 17.6504 3.56641C17.8366 4.00651 17.9297 4.51009 17.9297 5.07715ZM26.7402 22.2412C25.2083 22.2412 24.0277 21.8434 23.1982 21.0479C22.3688 20.2438 21.9541 19.0505 21.9541 17.4678C21.9541 17.0361 21.988 16.5791 22.0557 16.0967C22.1149 15.6143 22.2122 15.1191 22.3477 14.6113C22.6523 13.4772 23.0798 12.4277 23.6299 11.4629C24.1885 10.498 24.8275 9.66439 25.5469 8.96191C26.2663 8.25944 27.0407 7.70931 27.8701 7.31152C28.6995 6.91374 29.5332 6.71484 30.3711 6.71484C31.2174 6.71484 31.8818 6.91374 32.3643 7.31152C32.8551 7.70931 33.1006 8.2679 33.1006 8.9873C33.1006 9.39355 33.0202 9.79134 32.8594 10.1807C32.6986 10.57 32.4658 10.9382 32.1611 11.2852C31.8564 11.6322 31.4883 11.958 31.0566 12.2627C30.6335 12.5589 30.1553 12.8171 29.6221 13.0371C28.9619 13.3164 28.234 13.528 27.4385 13.6719C26.6429 13.8073 25.7373 13.875 24.7217 13.875C24.4762 14.5605 24.2816 15.2757 24.1377 16.0205C24.0023 16.7568 23.9346 17.5101 23.9346 18.2803C23.9346 19.4567 24.18 20.3073 24.6709 20.832C25.1702 21.3483 25.9531 21.6064 27.0195 21.6064C27.9082 21.6064 28.7546 21.4372 29.5586 21.0986C30.3626 20.7516 31.1074 20.2988 31.793 19.7402C32.4785 19.1816 33.1048 18.5469 33.6719 17.8359C34.2389 17.1165 34.734 16.3844 35.1572 15.6396L35.8174 14.4717L36.1602 14.7129L35.5 15.8809C34.9753 16.8034 34.3997 17.654 33.7734 18.4326C33.1556 19.2113 32.4785 19.8841 31.7422 20.4512C31.0143 21.0098 30.2314 21.4499 29.3936 21.7715C28.5641 22.0846 27.6797 22.2412 26.7402 22.2412ZM30.7266 7.22266C30.1934 7.22266 29.6475 7.37923 29.0889 7.69238C28.5387 8.00553 28.0055 8.44141 27.4893 9C26.973 9.55013 26.4906 10.2018 26.042 10.9551C25.5934 11.7083 25.2041 12.5293 24.874 13.418C25.805 13.401 26.6006 13.3206 27.2607 13.1768C27.9209 13.0244 28.4964 12.834 28.9873 12.6055C29.3766 12.4277 29.7533 12.1992 30.1172 11.9199C30.4896 11.6322 30.8154 11.3063 31.0947 10.9424C31.3825 10.5785 31.611 10.1849 31.7803 9.76172C31.958 9.33854 32.0469 8.89844 32.0469 8.44141C32.0469 8.21289 32.013 8.02246 31.9453 7.87012C31.8776 7.71777 31.7845 7.59505 31.666 7.50195C31.5475 7.40039 31.4079 7.32845 31.2471 7.28613C31.0863 7.24382 30.9128 7.22266 30.7266 7.22266ZM45.6055 15.8428C45.2754 16.7568 45.0299 17.5228 44.8691 18.1406C44.7168 18.7585 44.6406 19.2747 44.6406 19.6895C44.6406 20.2988 44.7803 20.7728 45.0596 21.1113C45.3473 21.4414 45.7578 21.6064 46.291 21.6064C46.8242 21.6064 47.3701 21.4583 47.9287 21.1621C48.4873 20.8574 49.029 20.4427 49.5537 19.918C50.0785 19.3848 50.5693 18.7585 51.0264 18.0391C51.4834 17.3112 51.8812 16.5241 52.2197 15.6777C52.5329 14.8822 52.7826 14.0697 52.9688 13.2402C53.1634 12.4108 53.2607 11.5518 53.2607 10.6631C53.2607 10.0199 53.2184 9.50781 53.1338 9.12695C53.0576 8.73763 52.9688 8.42871 52.8672 8.2002C52.7656 7.97168 52.6725 7.79818 52.5879 7.67969C52.5117 7.55273 52.4736 7.43001 52.4736 7.31152C52.4736 7.15918 52.5371 7.02376 52.6641 6.90527C52.7995 6.78678 52.9518 6.72754 53.1211 6.72754C53.3073 6.72754 53.4639 6.80371 53.5908 6.95605C53.7262 7.1084 53.8363 7.31576 53.9209 7.57812C54.0055 7.84049 54.069 8.14941 54.1113 8.50488C54.1536 8.86035 54.1748 9.23698 54.1748 9.63477C54.1748 10.2103 54.1325 10.7816 54.0479 11.3486C53.9717 11.9072 53.8659 12.4531 53.7305 12.9863C53.5951 13.5195 53.4385 14.0358 53.2607 14.5352C53.083 15.026 52.901 15.4873 52.7148 15.9189C52.3171 16.8415 51.86 17.6921 51.3438 18.4707C50.8359 19.2409 50.2858 19.9053 49.6934 20.4639C49.1094 21.0225 48.5 21.4583 47.8652 21.7715C47.2305 22.0846 46.5915 22.2412 45.9482 22.2412C45.4997 22.2412 45.0977 22.1608 44.7422 22C44.3952 21.8477 44.099 21.6276 43.8535 21.3398C43.6081 21.0521 43.4219 20.7051 43.2949 20.2988C43.168 19.8926 43.1045 19.4398 43.1045 18.9404C43.1045 18.8219 43.1087 18.695 43.1172 18.5596C43.1257 18.4242 43.1383 18.2845 43.1553 18.1406C42.766 18.7669 42.347 19.334 41.8984 19.8418C41.4583 20.3411 40.9971 20.7686 40.5146 21.124C40.0407 21.4795 39.5498 21.7546 39.042 21.9492C38.5426 22.1439 38.0433 22.2412 37.5439 22.2412C37.0954 22.2412 36.6934 22.1608 36.3379 22C35.9909 21.8477 35.6947 21.6276 35.4492 21.3398C35.2038 21.0521 35.0176 20.7051 34.8906 20.2988C34.7637 19.8926 34.7002 19.4398 34.7002 18.9404C34.7002 18.5088 34.7552 18.0306 34.8652 17.5059C34.9668 16.9727 35.1191 16.4183 35.3223 15.8428L38.5469 6.95605H40.4258L37.2012 15.8428C36.8711 16.7568 36.6257 17.5228 36.4648 18.1406C36.3125 18.7585 36.2363 19.2747 36.2363 19.6895C36.2363 20.2988 36.376 20.7728 36.6553 21.1113C36.943 21.4414 37.3535 21.6064 37.8867 21.6064C38.403 21.6064 38.9447 21.4541 39.5117 21.1494C40.0788 20.8447 40.6247 20.4342 41.1494 19.918C41.6826 19.3932 42.1735 18.7796 42.6221 18.0771C43.0706 17.3747 43.4388 16.6299 43.7266 15.8428L46.9385 6.95605H48.8174L45.6055 15.8428ZM67.1367 14.5859C67.4414 13.6719 67.8053 12.8424 68.2285 12.0977C68.6517 11.3444 69.1087 10.6758 69.5996 10.0918C70.099 9.50781 70.6195 9.00423 71.1611 8.58105C71.7113 8.15788 72.2572 7.81087 72.7988 7.54004C73.349 7.26074 73.8864 7.05339 74.4111 6.91797C74.9443 6.78255 75.4437 6.71484 75.9092 6.71484C76.3916 6.71484 76.7936 6.79102 77.1152 6.94336C77.4368 7.08724 77.695 7.2946 77.8896 7.56543C78.0928 7.8278 78.2367 8.14941 78.3213 8.53027C78.4059 8.90267 78.4482 9.31738 78.4482 9.77441L79.4766 6.95605H81.3555L78.1182 15.8428C77.9997 16.1729 77.8812 16.5114 77.7627 16.8584C77.6442 17.1969 77.5384 17.5355 77.4453 17.874C77.3607 18.2041 77.2887 18.5257 77.2295 18.8389C77.1787 19.1436 77.1533 19.4271 77.1533 19.6895C77.1533 20.2734 77.3057 20.7389 77.6104 21.0859C77.9235 21.4329 78.4059 21.6064 79.0576 21.6064C79.6247 21.6064 80.1748 21.488 80.708 21.251C81.2412 21.0055 81.766 20.6374 82.2822 20.1465C82.807 19.6471 83.3317 19.0251 83.8564 18.2803C84.3812 17.527 84.9229 16.6468 85.4814 15.6396L86.1289 14.4717L86.4717 14.7129L85.8115 15.8809C85.1937 16.9811 84.6012 17.9333 84.0342 18.7373C83.4756 19.5329 82.917 20.193 82.3584 20.7178C81.7998 21.234 81.2285 21.6191 80.6445 21.873C80.0605 22.1185 79.4385 22.2412 78.7783 22.2412C78.262 22.2412 77.805 22.1608 77.4072 22C77.0179 21.8477 76.6878 21.6276 76.417 21.3398C76.1546 21.0521 75.9557 20.7051 75.8203 20.2988C75.6849 19.8926 75.6172 19.4398 75.6172 18.9404C75.6172 18.6104 75.6468 18.2549 75.7061 17.874C75.7653 17.4847 75.8542 17.0827 75.9727 16.668C74.8639 18.5299 73.7679 19.9264 72.6846 20.8574C71.6012 21.7799 70.501 22.2412 69.3838 22.2412C68.859 22.2412 68.4105 22.1481 68.0381 21.9619C67.6742 21.7673 67.3737 21.5007 67.1367 21.1621C66.8997 20.8151 66.7262 20.4131 66.6162 19.9561C66.5062 19.4906 66.4512 18.9827 66.4512 18.4326C66.4512 17.8402 66.5104 17.2181 66.6289 16.5664C66.7474 15.9062 66.9167 15.2461 67.1367 14.5859ZM69.8408 21.6064C70.2979 21.6064 70.7633 21.488 71.2373 21.251C71.7113 21.0055 72.181 20.6755 72.6465 20.2607C73.1204 19.8376 73.5775 19.3467 74.0176 18.7881C74.4577 18.221 74.8724 17.6201 75.2617 16.9854C75.6595 16.3421 76.0234 15.682 76.3535 15.0049C76.6836 14.3278 76.9671 13.6634 77.2041 13.0117C77.4495 12.3516 77.6357 11.7253 77.7627 11.1328C77.8981 10.5319 77.9658 9.99447 77.9658 9.52051C77.9658 9.08887 77.9108 8.72917 77.8008 8.44141C77.6992 8.14518 77.5596 7.9082 77.3818 7.73047C77.2126 7.54427 77.0137 7.41309 76.7852 7.33691C76.5651 7.26074 76.3366 7.22266 76.0996 7.22266C75.6257 7.22266 75.0967 7.37077 74.5127 7.66699C73.9372 7.95475 73.349 8.39909 72.748 9C72.1471 9.59245 71.5547 10.3457 70.9707 11.2598C70.3952 12.1654 69.8662 13.2318 69.3838 14.459C68.986 15.4831 68.6855 16.431 68.4824 17.3027C68.2878 18.1745 68.1904 18.9023 68.1904 19.4863C68.1904 20.1465 68.3216 20.667 68.584 21.0479C68.8548 21.4202 69.2738 21.6064 69.8408 21.6064ZM95.6123 7.85742C95.6123 7.72201 95.5234 7.58659 95.3457 7.45117C95.1764 7.30729 94.9268 7.23535 94.5967 7.23535C94.2581 7.23535 93.89 7.34115 93.4922 7.55273C93.0944 7.75586 92.6416 8.11979 92.1338 8.64453C91.626 9.16927 91.0547 9.88444 90.4199 10.79C89.7936 11.6956 89.0827 12.8509 88.2871 14.2559L87.6523 15.373L85.2529 22H83.3613L88.8457 6.95605H90.7246L88.5029 13.0498C89.1969 11.8564 89.8317 10.8577 90.4072 10.0537C90.9827 9.24121 91.516 8.58952 92.0068 8.09863C92.4977 7.59928 92.959 7.24382 93.3906 7.03223C93.8223 6.82064 94.2454 6.71484 94.6602 6.71484C95.2188 6.71484 95.6546 6.87988 95.9678 7.20996C96.2894 7.54004 96.4502 7.97168 96.4502 8.50488C96.4502 8.72493 96.4206 8.93652 96.3613 9.13965C96.3105 9.33431 96.2301 9.50358 96.1201 9.64746C96.0186 9.79134 95.8916 9.9056 95.7393 9.99023C95.5869 10.0749 95.4176 10.1172 95.2314 10.1172C95.096 10.1172 94.9606 10.096 94.8252 10.0537C94.6982 10.0114 94.584 9.94792 94.4824 9.86328C94.3809 9.77018 94.2962 9.66016 94.2285 9.5332C94.1693 9.40625 94.1396 9.25814 94.1396 9.08887C94.1396 8.95345 94.1608 8.81803 94.2031 8.68262C94.2539 8.53874 94.3216 8.41602 94.4062 8.31445C94.4909 8.20443 94.5924 8.11556 94.7109 8.04785C94.8294 7.98014 94.9606 7.94629 95.1045 7.94629C95.1976 7.94629 95.2865 7.95475 95.3711 7.97168C95.388 7.98861 95.4092 8.00553 95.4346 8.02246C95.4684 8.03092 95.4938 8.03516 95.5107 8.03516C95.5785 8.03516 95.6123 7.97591 95.6123 7.85742ZM107.444 7.85742C107.444 7.72201 107.355 7.58659 107.178 7.45117C107.008 7.30729 106.759 7.23535 106.429 7.23535C106.09 7.23535 105.722 7.34115 105.324 7.55273C104.926 7.75586 104.474 8.11979 103.966 8.64453C103.458 9.16927 102.887 9.88444 102.252 10.79C101.626 11.6956 100.915 12.8509 100.119 14.2559L99.4844 15.373L97.085 22H95.1934L100.678 6.95605H102.557L100.335 13.0498C101.029 11.8564 101.664 10.8577 102.239 10.0537C102.815 9.24121 103.348 8.58952 103.839 8.09863C104.33 7.59928 104.791 7.24382 105.223 7.03223C105.654 6.82064 106.077 6.71484 106.492 6.71484C107.051 6.71484 107.487 6.87988 107.8 7.20996C108.121 7.54004 108.282 7.97168 108.282 8.50488C108.282 8.72493 108.253 8.93652 108.193 9.13965C108.143 9.33431 108.062 9.50358 107.952 9.64746C107.851 9.79134 107.724 9.9056 107.571 9.99023C107.419 10.0749 107.25 10.1172 107.063 10.1172C106.928 10.1172 106.793 10.096 106.657 10.0537C106.53 10.0114 106.416 9.94792 106.314 9.86328C106.213 9.77018 106.128 9.66016 106.061 9.5332C106.001 9.40625 105.972 9.25814 105.972 9.08887C105.972 8.95345 105.993 8.81803 106.035 8.68262C106.086 8.53874 106.154 8.41602 106.238 8.31445C106.323 8.20443 106.424 8.11556 106.543 8.04785C106.661 7.98014 106.793 7.94629 106.937 7.94629C107.03 7.94629 107.118 7.95475 107.203 7.97168C107.22 7.98861 107.241 8.00553 107.267 8.02246C107.3 8.03092 107.326 8.03516 107.343 8.03516C107.41 8.03516 107.444 7.97591 107.444 7.85742ZM112.535 6.95605H114.414L111.177 15.8428C111.058 16.1729 110.94 16.5114 110.821 16.8584C110.703 17.1969 110.597 17.5355 110.504 17.874C110.419 18.2041 110.347 18.5257 110.288 18.8389C110.237 19.1436 110.212 19.4271 110.212 19.6895C110.212 20.2734 110.364 20.7389 110.669 21.0859C110.982 21.4329 111.465 21.6064 112.116 21.6064C112.683 21.6064 113.229 21.4837 113.754 21.2383C114.287 20.9928 114.812 20.6247 115.328 20.1338C115.853 19.6344 116.378 19.0124 116.902 18.2676C117.427 17.5143 117.973 16.6383 118.54 15.6396L119.2 14.4717L119.543 14.7129L118.883 15.8809C118.265 16.9727 117.673 17.9206 117.105 18.7246C116.547 19.5202 115.984 20.1803 115.417 20.7051C114.858 21.2214 114.287 21.6064 113.703 21.8604C113.119 22.1143 112.497 22.2412 111.837 22.2412C111.321 22.2412 110.864 22.1608 110.466 22C110.076 21.8477 109.751 21.6276 109.488 21.3398C109.217 21.0521 109.014 20.7051 108.879 20.2988C108.743 19.8926 108.676 19.4398 108.676 18.9404C108.676 18.5003 108.731 18.0179 108.841 17.4932C108.942 16.9684 109.095 16.4183 109.298 15.8428L112.535 6.95605ZM113.551 3.62988C113.551 3.33366 113.652 3.07975 113.855 2.86816C114.067 2.65658 114.321 2.55078 114.617 2.55078C114.913 2.55078 115.163 2.65658 115.366 2.86816C115.578 3.07129 115.684 3.32096 115.684 3.61719C115.684 3.76107 115.654 3.90072 115.595 4.03613C115.544 4.16309 115.468 4.27311 115.366 4.36621C115.273 4.45931 115.159 4.53548 115.023 4.59473C114.896 4.64551 114.757 4.6709 114.604 4.6709C114.308 4.6709 114.059 4.57357 113.855 4.37891C113.652 4.17578 113.551 3.92611 113.551 3.62988ZM120.584 15.8428C120.254 16.7568 120.008 17.5228 119.848 18.1406C119.695 18.7585 119.619 19.2747 119.619 19.6895C119.619 20.2988 119.78 20.7728 120.102 21.1113C120.423 21.4414 120.893 21.6064 121.511 21.6064C122.086 21.6064 122.674 21.4583 123.275 21.1621C123.876 20.8574 124.46 20.4385 125.027 19.9053C125.594 19.3721 126.123 18.7458 126.614 18.0264C127.105 17.2985 127.533 16.5156 127.896 15.6777C128.235 14.8906 128.493 14.0824 128.671 13.2529C128.857 12.415 128.95 11.5518 128.95 10.6631C128.95 10.0199 128.908 9.50781 128.823 9.12695C128.747 8.73763 128.658 8.42871 128.557 8.2002C128.455 7.97168 128.362 7.79818 128.277 7.67969C128.201 7.55273 128.163 7.43001 128.163 7.31152C128.163 7.15918 128.227 7.02376 128.354 6.90527C128.489 6.78678 128.641 6.72754 128.811 6.72754C128.997 6.72754 129.153 6.80371 129.28 6.95605C129.416 7.1084 129.526 7.31576 129.61 7.57812C129.695 7.84049 129.758 8.14941 129.801 8.50488C129.843 8.86035 129.864 9.23698 129.864 9.63477C129.864 10.2103 129.822 10.7816 129.737 11.3486C129.661 11.9157 129.555 12.4658 129.42 12.999C129.293 13.5322 129.141 14.0443 128.963 14.5352C128.785 15.026 128.599 15.4873 128.404 15.9189C127.981 16.8415 127.494 17.6921 126.944 18.4707C126.394 19.2409 125.802 19.9053 125.167 20.4639C124.541 21.0225 123.889 21.4583 123.212 21.7715C122.535 22.0846 121.854 22.2412 121.168 22.2412C120.686 22.2412 120.254 22.1608 119.873 22C119.492 21.8477 119.171 21.6276 118.908 21.3398C118.637 21.0521 118.434 20.7051 118.299 20.2988C118.155 19.8926 118.083 19.4398 118.083 18.9404C118.083 18.5088 118.138 18.0306 118.248 17.5059C118.35 16.9727 118.502 16.4183 118.705 15.8428L121.93 6.95605H123.809L120.584 15.8428ZM133.406 14.5859C133.711 13.6719 134.075 12.8424 134.498 12.0977C134.921 11.3444 135.378 10.6758 135.869 10.0918C136.368 9.50781 136.889 9.00423 137.431 8.58105C137.981 8.15788 138.527 7.81087 139.068 7.54004C139.618 7.26074 140.156 7.05339 140.681 6.91797C141.214 6.78255 141.713 6.71484 142.179 6.71484C142.661 6.71484 143.063 6.79102 143.385 6.94336C143.706 7.08724 143.965 7.2946 144.159 7.56543C144.362 7.8278 144.506 8.14941 144.591 8.53027C144.675 8.90267 144.718 9.31738 144.718 9.77441L145.746 6.95605H147.625L144.388 15.8428C144.269 16.1729 144.151 16.5114 144.032 16.8584C143.914 17.1969 143.808 17.5355 143.715 17.874C143.63 18.2041 143.558 18.5257 143.499 18.8389C143.448 19.1436 143.423 19.4271 143.423 19.6895C143.423 20.2734 143.575 20.7389 143.88 21.0859C144.193 21.4329 144.675 21.6064 145.327 21.6064C145.894 21.6064 146.444 21.488 146.978 21.251C147.511 21.0055 148.035 20.6374 148.552 20.1465C149.076 19.6471 149.601 19.0251 150.126 18.2803C150.651 17.527 151.192 16.6468 151.751 15.6396L152.398 14.4717L152.741 14.7129L152.081 15.8809C151.463 16.9811 150.871 17.9333 150.304 18.7373C149.745 19.5329 149.187 20.193 148.628 20.7178C148.069 21.234 147.498 21.6191 146.914 21.873C146.33 22.1185 145.708 22.2412 145.048 22.2412C144.532 22.2412 144.075 22.1608 143.677 22C143.287 21.8477 142.957 21.6276 142.687 21.3398C142.424 21.0521 142.225 20.7051 142.09 20.2988C141.954 19.8926 141.887 19.4398 141.887 18.9404C141.887 18.6104 141.916 18.2549 141.976 17.874C142.035 17.4847 142.124 17.0827 142.242 16.668C141.133 18.5299 140.037 19.9264 138.954 20.8574C137.871 21.7799 136.771 22.2412 135.653 22.2412C135.129 22.2412 134.68 22.1481 134.308 21.9619C133.944 21.7673 133.643 21.5007 133.406 21.1621C133.169 20.8151 132.996 20.4131 132.886 19.9561C132.776 19.4906 132.721 18.9827 132.721 18.4326C132.721 17.8402 132.78 17.2181 132.898 16.5664C133.017 15.9062 133.186 15.2461 133.406 14.5859ZM136.11 21.6064C136.567 21.6064 137.033 21.488 137.507 21.251C137.981 21.0055 138.451 20.6755 138.916 20.2607C139.39 19.8376 139.847 19.3467 140.287 18.7881C140.727 18.221 141.142 17.6201 141.531 16.9854C141.929 16.3421 142.293 15.682 142.623 15.0049C142.953 14.3278 143.237 13.6634 143.474 13.0117C143.719 12.3516 143.905 11.7253 144.032 11.1328C144.168 10.5319 144.235 9.99447 144.235 9.52051C144.235 9.08887 144.18 8.72917 144.07 8.44141C143.969 8.14518 143.829 7.9082 143.651 7.73047C143.482 7.54427 143.283 7.41309 143.055 7.33691C142.835 7.26074 142.606 7.22266 142.369 7.22266C141.895 7.22266 141.366 7.37077 140.782 7.66699C140.207 7.95475 139.618 8.39909 139.018 9C138.417 9.59245 137.824 10.3457 137.24 11.2598C136.665 12.1654 136.136 13.2318 135.653 14.459C135.256 15.4831 134.955 16.431 134.752 17.3027C134.557 18.1745 134.46 18.9023 134.46 19.4863C134.46 20.1465 134.591 20.667 134.854 21.0479C135.124 21.4202 135.543 21.6064 136.11 21.6064ZM157.565 0.265625H159.457L153.782 15.8428C153.664 16.1729 153.545 16.5114 153.427 16.8584C153.308 17.1969 153.202 17.5355 153.109 17.874C153.025 18.2041 152.953 18.5257 152.894 18.8389C152.843 19.1436 152.817 19.4271 152.817 19.6895C152.817 20.2734 152.97 20.7389 153.274 21.0859C153.588 21.4329 154.07 21.6064 154.722 21.6064C155.289 21.6064 155.835 21.4837 156.359 21.2383C156.893 20.9928 157.417 20.6247 157.934 20.1338C158.458 19.6344 158.983 19.0124 159.508 18.2676C160.033 17.5143 160.578 16.6383 161.146 15.6396L161.806 14.4717L162.148 14.7129L161.488 15.8809C160.87 16.9727 160.278 17.9206 159.711 18.7246C159.152 19.5202 158.59 20.1803 158.022 20.7051C157.464 21.2214 156.893 21.6064 156.309 21.8604C155.725 22.1143 155.103 22.2412 154.442 22.2412C153.926 22.2412 153.469 22.1608 153.071 22C152.682 21.8477 152.356 21.6276 152.094 21.3398C151.823 21.0521 151.62 20.7051 151.484 20.2988C151.349 19.8926 151.281 19.4398 151.281 18.9404C151.281 18.5003 151.332 18.0221 151.434 17.5059C151.535 16.9811 151.692 16.4268 151.903 15.8428L157.565 0.265625Z" fill="#432916"/>
</svg>
