<svg width="52" height="52" viewBox="0 0 52 52" fill="none" xmlns="http://www.w3.org/2000/svg">
<path d="M20.8508 27.2C19.7148 27.2 18.7948 26.784 18.0908 25.952C17.4028 25.104 17.0588 24 17.0588 22.64C17.0588 21.28 17.4028 20.184 18.0908 19.352C18.7948 18.504 19.7148 18.08 20.8508 18.08C21.9708 18.08 22.8828 18.496 23.5868 19.328C24.2908 20.16 24.6428 21.264 24.6428 22.64C24.6428 24.016 24.2908 25.12 23.5868 25.952C22.8828 26.784 21.9708 27.2 20.8508 27.2ZM31.0268 18.2H32.4428L20.9708 35H19.5548L31.0268 18.2ZM20.8508 26.12C21.6348 26.12 22.2588 25.816 22.7228 25.208C23.2028 24.584 23.4428 23.728 23.4428 22.64C23.4428 21.552 23.2028 20.704 22.7228 20.096C22.2588 19.472 21.6348 19.16 20.8508 19.16C20.0508 19.16 19.4188 19.472 18.9548 20.096C18.4908 20.72 18.2588 21.568 18.2588 22.64C18.2588 23.712 18.4908 24.56 18.9548 25.184C19.4188 25.808 20.0508 26.12 20.8508 26.12ZM31.1468 35.12C30.0268 35.12 29.1148 34.704 28.4108 33.872C27.7068 33.024 27.3548 31.92 27.3548 30.56C27.3548 29.2 27.7068 28.104 28.4108 27.272C29.1148 26.424 30.0268 26 31.1468 26C32.2828 26 33.1948 26.424 33.8828 27.272C34.5868 28.104 34.9388 29.2 34.9388 30.56C34.9388 31.92 34.5868 33.024 33.8828 33.872C33.1948 34.704 32.2828 35.12 31.1468 35.12ZM31.1468 34.04C31.9468 34.04 32.5788 33.728 33.0428 33.104C33.5068 32.48 33.7388 31.632 33.7388 30.56C33.7388 29.488 33.5068 28.64 33.0428 28.016C32.5788 27.392 31.9468 27.08 31.1468 27.08C30.3628 27.08 29.7308 27.392 29.2508 28.016C28.7868 28.624 28.5548 29.472 28.5548 30.56C28.5548 31.648 28.7868 32.504 29.2508 33.128C29.7308 33.736 30.3628 34.04 31.1468 34.04Z" fill="#C48300"/>
<path d="M7.99791 7.99791L26 0.541196L44.0021 7.99791L51.4588 26L44.0021 44.0021L26 51.4588L7.99791 44.0021L0.541196 26L7.99791 7.99791Z" stroke="#C7AD9F"/>
</svg>
