<svg width="32" height="32" viewBox="0 0 32 32" fill="none" xmlns="http://www.w3.org/2000/svg">
<path fill-rule="evenodd" clip-rule="evenodd" d="M15.8985 0C7.11862 0 0.00109863 7.11752 0.00109863 15.8974C0.00109863 24.6773 7.11862 31.7949 15.8985 31.7949C24.6784 31.7949 31.796 24.6773 31.796 15.8974C31.796 7.11752 24.6784 0 15.8985 0ZM15.4558 13.4717L15.4224 12.9216C15.3223 11.4959 16.2008 10.1936 17.5908 9.68846C18.1023 9.50884 18.9697 9.48639 19.5368 9.64356C19.7592 9.71092 20.1818 9.93544 20.482 10.1375L21.0269 10.508L21.6273 10.3171C21.9609 10.2161 22.4057 10.0477 22.6059 9.93544C22.7949 9.8344 22.9617 9.77827 22.9617 9.81195C22.9617 10.0028 22.5503 10.6539 22.2056 11.0132C21.7385 11.5183 21.872 11.5632 22.8172 11.2265C23.3843 11.0356 23.3954 11.0356 23.2842 11.2489C23.2175 11.3612 22.8728 11.7541 22.5058 12.1133C21.8831 12.7308 21.8497 12.7981 21.8497 13.3145C21.8497 14.1116 21.4717 15.7731 21.0936 16.6824C20.393 18.3888 18.8918 20.1513 17.3907 21.0382C15.2779 22.2843 12.4645 22.5987 10.096 21.869C9.30647 21.622 7.94984 20.9933 7.94984 20.8811C7.94984 20.8474 8.36127 20.8025 8.86167 20.7912C9.90694 20.7688 10.9522 20.4769 11.8418 19.9605L12.4423 19.6013L11.7528 19.3655C10.7743 19.0287 9.89582 18.2541 9.67342 17.5244C9.6067 17.2886 9.62894 17.2774 10.2517 17.2774L10.8966 17.2662L10.3517 17.008C9.70678 16.6824 9.11743 16.1323 8.82831 15.571C8.61703 15.1669 8.35015 14.1453 8.42799 14.0667C8.45023 14.033 8.68375 14.1004 8.95063 14.1902C9.7179 14.4709 9.81798 14.4035 9.37319 13.932C8.53919 13.0788 8.28343 11.8102 8.68375 10.609L8.87279 10.0702L9.6067 10.7999C11.1079 12.2705 12.876 13.1462 14.8998 13.4044L15.4558 13.4717Z" fill="white"/>
</svg>
